<svg width="27" height="27" viewBox="0 0 27 27" fill="none" xmlns="http://www.w3.org/2000/svg">
<path d="M6.25001 0.9375C2.42792 0.9375 0.89039 4.36597 0.89039 4.36597C0.838471 4.49105 0.811928 4.62647 0.812509 4.76331V9.41406C0.812692 9.61636 0.87211 9.81353 0.982431 9.97791C0.982431 9.97791 1.49027 10.7082 2.48341 11.3364C3.28391 11.8428 4.70904 12.1547 6.25001 12.3241V25.1562C6.25004 25.4132 6.34552 25.6596 6.51547 25.8412C6.68542 26.0229 6.91592 26.125 7.15626 26.125H10.7813C11.0216 26.125 11.2521 26.0229 11.4221 25.8412C11.592 25.6596 11.6875 25.4132 11.6875 25.1562V7.48035V7.47656C11.6876 7.473 11.7078 5.91478 11.0574 4.30542C10.4063 2.69422 8.87532 0.9375 6.25001 0.9375ZM20.75 0.9375C18.1247 0.9375 16.5938 2.69422 15.9426 4.30542C15.2915 5.91662 15.3125 7.48035 15.3125 7.48035V25.1562C15.3125 25.4132 15.408 25.6596 15.578 25.8412C15.7479 26.0229 15.9784 26.125 16.2188 26.125H19.8438C20.0841 26.125 20.3146 26.0229 20.4846 25.8412C20.6545 25.6596 20.75 25.4132 20.75 25.1562V12.3241C22.291 12.1547 23.7161 11.8428 24.5166 11.3364C25.5098 10.7082 26.0176 9.97791 26.0176 9.97791C26.1279 9.81353 26.1873 9.61636 26.1875 9.41406V4.76331C26.1881 4.62647 26.1616 4.49105 26.1096 4.36597C26.1096 4.36597 24.5721 0.9375 20.75 0.9375ZM6.25001 2.875C8.18495 2.875 8.91914 3.90344 9.39357 5.07739C9.868 6.25135 9.87501 7.47278 9.87501 7.47278V7.47656V24.1875H8.06251V11.5938C8.06249 11.3368 7.967 11.0904 7.79705 10.9088C7.6271 10.7271 7.39661 10.625 7.15626 10.625C5.31894 10.625 4.13346 10.133 3.40382 9.67139C2.80504 9.29259 2.69712 9.09621 2.62501 8.9978V5.04333C2.7082 4.83778 3.5373 2.875 6.25001 2.875ZM20.75 2.875C23.4627 2.875 24.2918 4.83778 24.375 5.04333V8.9978C24.3029 9.09621 24.195 9.29259 23.5962 9.67139C22.8666 10.133 21.6811 10.625 19.8438 10.625C19.6034 10.625 19.3729 10.7271 19.203 10.9088C19.033 11.0904 18.9375 11.3368 18.9375 11.5938V24.1875H17.125V7.47656V7.47278C17.125 7.47278 17.1321 6.25135 17.6065 5.07739C18.0809 3.90343 18.8151 2.875 20.75 2.875ZM5.34376 6.75C5.10341 6.75 4.8729 6.85206 4.70295 7.03374C4.53299 7.21542 4.43751 7.46182 4.43751 7.71875C4.43751 7.97568 4.53299 8.22208 4.70295 8.40376C4.8729 8.58544 5.10341 8.6875 5.34376 8.6875C5.58411 8.6875 5.81462 8.58544 5.98458 8.40376C6.15453 8.22208 6.25001 7.97568 6.25001 7.71875C6.25001 7.46182 6.15453 7.21542 5.98458 7.03374C5.81462 6.85206 5.58411 6.75 5.34376 6.75ZM21.6563 6.75C21.4159 6.75 21.1854 6.85206 21.0155 7.03374C20.8455 7.21542 20.75 7.46182 20.75 7.71875C20.75 7.97568 20.8455 8.22208 21.0155 8.40376C21.1854 8.58544 21.4159 8.6875 21.6563 8.6875C21.8966 8.6875 22.1271 8.58544 22.2971 8.40376C22.467 8.22208 22.5625 7.97568 22.5625 7.71875C22.5625 7.46182 22.467 7.21542 22.2971 7.03374C22.1271 6.85206 21.8966 6.75 21.6563 6.75Z" fill="#242424"/>
</svg>
