<svg width="23" height="27" viewBox="0 0 23 27" fill="none" xmlns="http://www.w3.org/2000/svg">
<path d="M17.1296 0.0135118C17.0694 -0.0506129 14.9021 0.0388242 13.0161 1.99125C11.1301 3.94199 11.4203 6.17961 11.4627 6.23698C11.5052 6.29435 14.152 6.38379 15.8416 4.11412C17.5312 1.84444 17.1898 0.0793239 17.1296 0.0135118ZM22.9928 19.8128C22.9079 19.6508 18.8794 17.7305 19.2545 14.0383C19.6295 10.3443 22.2179 9.33184 22.2586 9.22215C22.2993 9.11246 21.2024 7.88903 20.04 7.26972C19.1865 6.83309 18.242 6.58293 17.2747 6.53735C17.0836 6.53229 16.4201 6.37704 15.0561 6.7331C14.1573 6.96766 12.1315 7.72704 11.5742 7.75741C11.0151 7.78778 9.35205 6.87654 7.56335 6.63523C6.41865 6.42429 5.20496 6.85629 4.33626 7.18873C3.46934 7.51947 1.82041 8.46109 0.66687 10.9636C-0.486671 13.4645 0.116638 17.4267 0.548332 18.6586C0.980025 19.8888 1.6541 21.9053 2.80057 23.3768C3.81965 25.0373 5.17134 26.1899 5.73573 26.5814C6.30012 26.9729 7.89243 27.2327 8.99643 26.6944C9.88458 26.1747 11.4875 25.876 12.1209 25.8979C12.7525 25.9199 13.9981 26.1578 15.2737 26.8075C16.2839 27.1399 17.2393 27.0016 18.1965 26.6303C19.1536 26.2574 20.5389 24.8433 22.156 21.9762C22.7699 20.6431 23.0495 19.9225 22.9928 19.8128Z" fill="#242424"/>
</svg>
